PathFileType  4	(X/Y/Z) C:\Users\wagnerel85475\Documents\Thesis\opencap-core\Data\3375ffbc-daeb-4a43-b4f7-ac9899cd4c71\MarkerData\PreAugmentation
DataRate	CameraRate	NumFrames	NumMarkers	Units	OrigDataRate	OrigDataStartFrame	OrigNumFrames
60.0	60.0	9	20	m	60.0	366	585
Frame#	Time	Neck			RShoulder			RElbow			RWrist			LShoulder			LElbow			LWrist			midHip			RHip			RKnee			RAnkle			LHip			LKnee			LAnkle			LBigToe			LSmallToe			LHeel			RBigToe			RSmallToe			RHeel			
		X1	Y1	Z1	X2	Y2	Z2	X3	Y3	Z3	X4	Y4	Z4	X5	Y5	Z5	X6	Y6	Z6	X7	Y7	Z7	X8	Y8	Z8	X9	Y9	Z9	X10	Y10	Z10	X11	Y11	Z11	X12	Y12	Z12	X13	Y13	Z13	X14	Y14	Z14	X15	Y15	Z15	X16	Y16	Z16	X17	Y17	Z17	X18	Y18	Z18	X19	Y19	Z19	X20	Y20	Z20	

366	6.0833333	0.3971600	1.7645000	-0.2763400	0.4104500	1.7921400	-0.0812600	0.3342600	1.5126700	0.0333000	0.4427700	1.2372000	0.1241900	0.3903400	1.7306900	-0.4455800	0.3706500	1.4369000	-0.4916800	0.4137200	1.1399900	-0.5020100	0.4204500	1.2460800	-0.2006800	0.4209500	1.2530000	-0.0767200	0.6039300	0.8102000	-0.0591600	0.8225800	0.3779600	-0.0030300	0.4186000	1.2287500	-0.2958000	0.3447000	0.7668200	-0.2404600	0.2027600	0.2524200	-0.1936700	0.4294200	0.2156500	-0.2130400	0.3273600	0.2002900	-0.2496900	0.1090400	0.1921800	-0.1904600	0.9978800	0.3099900	0.0098400	0.9667300	0.3255800	0.0522800	0.7882700	0.3067400	-0.0263400
367	6.1000000	0.4081800	1.7630400	-0.2727400	0.4120200	1.7873900	-0.0806100	0.3356800	1.5123800	0.0335600	0.4430000	1.2383300	0.1243100	0.4005300	1.7288100	-0.4491000	0.3808900	1.4352500	-0.4959600	0.4239900	1.1394100	-0.5055600	0.4312000	1.2468400	-0.1967300	0.4205300	1.2531800	-0.0759800	0.6147800	0.8072200	-0.0560100	0.8233400	0.3689000	-0.0023000	0.4185900	1.2288800	-0.2958000	0.3554200	0.7686900	-0.2441900	0.2140200	0.2550400	-0.1982900	0.4347400	0.2191500	-0.2158100	0.3493300	0.1978900	-0.2501900	0.0956200	0.1818500	-0.1954000	1.0276000	0.3055800	0.0180500	0.9740900	0.3108500	0.0563700	0.7969700	0.3068800	-0.0218800
368	6.1166667	0.4080400	1.7632600	-0.2722200	0.4111300	1.7877000	-0.0808900	0.3554300	1.5114500	0.0323000	0.4537200	1.2416500	0.1274200	0.4217800	1.7278300	-0.4485700	0.3722900	1.4332300	-0.5002500	0.4356400	1.1449800	-0.5092000	0.4414200	1.2428600	-0.1924900	0.4214200	1.2531100	-0.0765700	0.6229800	0.8166300	-0.0597300	0.8301100	0.3645000	0.0011800	0.4187700	1.2286600	-0.2957100	0.3550700	0.7640800	-0.2448000	0.2141500	0.2544100	-0.1982100	0.4408300	0.2142900	-0.2183900	0.3815400	0.2108400	-0.2637100	0.0987900	0.1842000	-0.1952100	1.0413000	0.3025000	0.0176400	0.9893100	0.3046300	0.0567100	0.7937000	0.3043200	-0.0210500
369	6.1333333	0.4295800	1.7608300	-0.2642900	0.4125700	1.7916700	-0.0807400	0.3571000	1.5067800	0.0328100	0.4547400	1.2384100	0.1276800	0.4212500	1.7270500	-0.4483100	0.3912300	1.4313400	-0.4997400	0.4866600	1.1418300	-0.5198600	0.4526900	1.2427400	-0.1884300	0.4313900	1.2532800	-0.0720600	0.6340800	0.8169800	-0.0568200	0.8303500	0.3561600	0.0019200	0.4184700	1.2287000	-0.2956400	0.3558200	0.7646700	-0.2443900	0.2257400	0.2573500	-0.2029800	0.4427300	0.2149100	-0.2197000	0.3820200	0.2115700	-0.2722600	0.1005000	0.1870800	-0.1974800	1.0562800	0.3007300	0.0262800	1.0126400	0.2993600	0.0591000	0.7985600	0.2999500	-0.0142400
370	6.1500000	0.4493100	1.7590300	-0.2634700	0.4220900	1.7939800	-0.0771600	0.3677900	1.5064100	0.0362300	0.4663900	1.2405500	0.1309700	0.4427200	1.7264000	-0.4478000	0.3929400	1.4324700	-0.4994700	0.4981400	1.1510100	-0.5234000	0.4629100	1.2387400	-0.1842300	0.4325000	1.2530600	-0.0726300	0.6628900	0.8119100	-0.0534600	0.8470400	0.3574000	0.0017900	0.4191900	1.2285700	-0.2954900	0.3659100	0.7686900	-0.2408600	0.2277300	0.2527000	-0.2035800	0.4489900	0.2174400	-0.2219200	0.3944200	0.2078900	-0.2673300	0.0900000	0.1756200	-0.2005700	1.0584500	0.2964800	0.0243800	1.0236200	0.2945700	0.0614200	0.8205500	0.3020900	-0.0089600
371	6.1666667	0.4602800	1.7577300	-0.2598600	0.4237800	1.7932600	-0.0766700	0.3804600	1.5056400	0.0402500	0.4890500	1.2455200	0.1378000	0.4525900	1.7283300	-0.4517000	0.3919400	1.4387500	-0.5000200	0.5077700	1.1578200	-0.5273200	0.4632600	1.2360600	-0.1842900	0.4426600	1.2532400	-0.0681600	0.6644600	0.8183000	-0.0540800	0.8630100	0.3605800	0.0021500	0.4290200	1.2252200	-0.2915100	0.3778000	0.7710700	-0.2359900	0.2166500	0.2510500	-0.2075500	0.4403000	0.2156100	-0.2270300	0.3847000	0.2034100	-0.2715100	0.1001300	0.1875800	-0.1975200	1.0829600	0.2993300	0.0348200	1.0463900	0.3002400	0.0644400	0.8406400	0.3056600	-0.0024700
372	6.1833333	0.4699700	1.7570300	-0.2553500	0.4535500	1.7897200	-0.0735500	0.3930200	1.5127500	0.0516700	0.5026200	1.2484800	0.1491100	0.4538900	1.7293400	-0.4517300	0.3937600	1.4399500	-0.5077900	0.5194500	1.1636100	-0.5309300	0.4634300	1.2354300	-0.1840800	0.4435800	1.2530500	-0.0688500	0.6729400	0.8176000	-0.0496900	0.8687700	0.3661400	0.0063400	0.4294300	1.2253200	-0.2914100	0.3880500	0.7673100	-0.2322100	0.2168300	0.2503400	-0.2075200	0.4559700	0.2201100	-0.2250400	0.3951800	0.2058700	-0.2672400	0.0985400	0.1812200	-0.2037600	1.0907800	0.2954800	0.0294700	1.0561000	0.3005400	0.0672300	0.8373100	0.3111500	-0.0012000
373	6.2000000	0.4710400	1.7568200	-0.2556600	0.4768200	1.7906900	-0.0655100	0.4053500	1.5123800	0.0557400	0.5134100	1.2534300	0.1527300	0.4723600	1.7268600	-0.4508800	0.4024000	1.4460500	-0.5039200	0.5494700	1.1723300	-0.5421300	0.4739900	1.2397700	-0.1804100	0.4737900	1.2536300	-0.0647200	0.6739200	0.8242100	-0.0503500	0.8991400	0.3783300	0.0160900	0.4396900	1.2294200	-0.2954900	0.3887600	0.7559700	-0.2324100	0.2165100	0.2507300	-0.2076700	0.4570900	0.2199300	-0.2258500	0.3952400	0.2060600	-0.2675700	0.1068900	0.1810600	-0.2086500	1.1076900	0.2996500	0.0362200	1.0708800	0.3030800	0.0660000	0.8502600	0.3158800	0.0012900
374	6.2166667	0.4710000	1.7571300	-0.2550500	0.4867700	1.7934100	-0.0618800	0.4157700	1.5123800	0.0589800	0.5157300	1.2598900	0.1607000	0.4641500	1.7320700	-0.4468600	0.4037200	1.4514200	-0.5037600	0.5808300	1.1785200	-0.5527500	0.4839600	1.2390100	-0.1841600	0.4857000	1.2534000	-0.0615800	0.6840100	0.8222700	-0.0463100	0.9205500	0.3767400	0.0207400	0.4407500	1.2258700	-0.2953300	0.3997900	0.7482500	-0.2373700	0.2273900	0.2529000	-0.2121500	0.4617700	0.2219400	-0.2277500	0.3955000	0.2068000	-0.2677900	0.1053100	0.1751600	-0.2064100	1.1321600	0.3051600	0.0370000	1.0966700	0.3091100	0.0672300	0.8726100	0.3199300	0.0046800
